<svg width="23" height="24" viewBox="0 0 23 24" fill="none" xmlns="http://www.w3.org/2000/svg">
<path d="M13.5946 2.875C12.4601 2.875 11.372 3.36228 10.5697 4.22963C9.76745 5.09699 9.31672 6.27337 9.31672 7.5V10.075H7.02745C6.91252 10.075 6.81934 10.1757 6.81934 10.3V13.7C6.81934 13.8243 6.91252 13.925 7.02745 13.925H9.31672V20.9C9.31672 21.0243 9.4099 21.125 9.52483 21.125H12.6697C12.7847 21.125 12.8778 21.0243 12.8778 20.9V13.925H15.1873C15.2829 13.925 15.3661 13.8547 15.3892 13.7546L16.1755 10.3546C16.2083 10.2126 16.109 10.075 15.9735 10.075H12.8778V7.5C12.8778 7.29446 12.9534 7.09733 13.0878 6.95199C13.2222 6.80665 13.4046 6.725 13.5946 6.725H15.9995C16.1145 6.725 16.2076 6.62426 16.2076 6.5V3.1C16.2076 2.97574 16.1145 2.875 15.9995 2.875H13.5946Z" fill="white"/>
</svg>
