<svg width="280" height="290" viewBox="0 0 280 290" fill="none" xmlns="http://www.w3.org/2000/svg">
<rect width="280" height="290" fill="#DAA520"/>
<path d="M44.8281 138.016C45.7344 138.172 46.5312 138.281 47.2188 138.344C47.9375 138.406 48.5312 138.453 49 138.484C49.5625 138.516 50.0469 138.531 50.4531 138.531C50.8594 138.531 51.4375 138.5 52.1875 138.438C52.8125 138.375 53.625 138.297 54.625 138.203C55.6562 138.109 56.9219 137.953 58.4219 137.734C57.9844 137.859 57.5781 138.219 57.2031 138.812C56.8594 139.375 56.5469 139.984 56.2656 140.641C55.9219 141.422 55.625 142.281 55.375 143.219C55.1562 144.062 54.875 145.219 54.5312 146.688C54.2188 148.156 53.9062 149.75 53.5938 151.469C53.3125 153.188 53.0938 154.938 52.9375 156.719C52.7812 158.469 52.75 160.078 52.8438 161.547C52.9688 163.016 53.2656 164.234 53.7344 165.203C54.2031 166.141 54.9219 166.641 55.8906 166.703C57.3594 166.828 58.5781 166.844 59.5469 166.75C60.5469 166.625 61.3594 166.453 61.9844 166.234C62.6094 166.016 63.0938 165.766 63.4375 165.484C63.7812 165.172 64.0469 164.875 64.2344 164.594C64.7344 163.875 65.25 162.953 65.7812 161.828C66.3125 160.703 66.7812 159.625 67.1875 158.594C67.625 157.562 67.9844 156.688 68.2656 155.969C68.5469 155.25 68.6875 154.906 68.6875 154.938C68.6875 155 68.6719 155.359 68.6406 156.016C68.6406 156.641 68.625 157.406 68.5938 158.312C68.5938 159.188 68.5781 160.109 68.5469 161.078C68.5469 162.047 68.5312 162.875 68.5 163.562C68.4688 164.125 68.4375 164.75 68.4062 165.438C68.375 166.031 68.3438 166.734 68.3125 167.547C68.3125 168.359 68.2812 169.25 68.2188 170.219C66.9062 170.125 65.6562 170.062 64.4688 170.031C63.2812 170 62.2344 169.984 61.3281 169.984C60.2656 169.984 59.2812 170 58.375 170.031C57.4062 170.062 56.2812 170.109 55 170.172C53.9062 170.234 52.5469 170.312 50.9219 170.406C49.2969 170.469 47.4219 170.562 45.2969 170.688C45.5469 170.25 45.75 169.844 45.9062 169.469C46.0938 169.094 46.2344 168.781 46.3281 168.531C46.4531 168.219 46.5312 167.953 46.5625 167.734C46.75 166.734 46.9062 165.469 47.0312 163.938C47.1562 162.375 47.25 160.719 47.3125 158.969C47.4062 157.219 47.4531 155.438 47.4531 153.625C47.4844 151.781 47.4844 150.078 47.4531 148.516C47.4219 146.953 47.3594 145.594 47.2656 144.438C47.2031 143.281 47.1094 142.484 46.9844 142.047C46.8281 141.547 46.6406 141.047 46.4219 140.547C46.2344 140.109 46 139.672 45.7188 139.234C45.4688 138.766 45.1719 138.359 44.8281 138.016ZM83.5 164.453C84.375 164.453 85.1875 164.359 85.9375 164.172C86.5625 164.016 87.1562 163.766 87.7188 163.422C88.3125 163.047 88.7031 162.5 88.8906 161.781C89.5156 161.906 90.0469 162.016 90.4844 162.109C90.9219 162.172 91.2969 162.234 91.6094 162.297C91.9531 162.391 92.25 162.453 92.5 162.484C92.75 162.547 93.0469 162.609 93.3906 162.672C93.7031 162.734 94.0781 162.812 94.5156 162.906C94.9844 162.969 95.5312 163.062 96.1562 163.188C95.6875 163.125 95.2031 163.172 94.7031 163.328C94.2344 163.484 93.7812 163.656 93.3438 163.844C92.8438 164.062 92.375 164.328 91.9375 164.641C91.6562 164.828 91.3281 165.109 90.9531 165.484C90.6094 165.859 90.1094 166.219 89.4531 166.562C88.7969 166.906 87.9219 167.203 86.8281 167.453C85.7656 167.672 84.3906 167.75 82.7031 167.688C80.6719 167.625 78.9688 167.266 77.5938 166.609C76.2188 165.922 75.1094 165.094 74.2656 164.125C73.4219 163.125 72.8125 162.047 72.4375 160.891C72.0625 159.734 71.8594 158.656 71.8281 157.656C71.7969 156.656 72.0938 155.609 72.7188 154.516C73.3438 153.422 74.2188 152.422 75.3438 151.516C76.5 150.609 77.8906 149.875 79.5156 149.312C81.1406 148.719 82.9219 148.422 84.8594 148.422C85.9844 148.422 87.0156 148.562 87.9531 148.844C88.9219 149.094 89.7969 149.438 90.5781 149.875C91.3906 150.312 92.0938 150.812 92.6875 151.375C93.2812 151.906 93.7812 152.453 94.1875 153.016C94.5938 153.609 94.9375 154.234 95.2188 154.891C95.4688 155.453 95.6719 156.094 95.8281 156.812C95.9844 157.531 96.0312 158.266 95.9688 159.016C93.5938 159.078 91.6719 159.125 90.2031 159.156C88.7656 159.188 87.6406 159.203 86.8281 159.203H84.7188H83.125C82.5625 159.203 81.8281 159.219 80.9219 159.25C80.0156 159.281 78.9062 159.328 77.5938 159.391C77.75 160.641 78.1406 161.609 78.7656 162.297C79.4219 162.953 80.1094 163.453 80.8281 163.797C81.6406 164.172 82.5312 164.391 83.5 164.453ZM79.2812 156.016C80.2812 156.078 81.1094 156.125 81.7656 156.156C82.4531 156.188 83.0156 156.219 83.4531 156.25C83.9219 156.281 84.2969 156.297 84.5781 156.297H85.75C86.5312 156.297 87.9844 156.25 90.1094 156.156C90.0156 154.781 89.7188 153.734 89.2188 153.016C88.75 152.297 88.25 151.766 87.7188 151.422C87.0938 151.047 86.4062 150.828 85.6562 150.766C83.625 150.797 82.1094 151.219 81.1094 152.031C80.1406 152.844 79.5312 154.172 79.2812 156.016ZM139.422 155.359C139.047 155.297 138.578 155.25 138.016 155.219C137.484 155.188 136.969 155.172 136.469 155.172C135.906 155.172 135.312 155.188 134.688 155.219C134.031 155.25 133.375 155.281 132.719 155.312C132.156 155.344 131.516 155.391 130.797 155.453C130.109 155.484 129.438 155.531 128.781 155.594C129.031 155.469 129.25 155.297 129.438 155.078C129.656 154.859 129.844 154.641 130 154.422C130.156 154.172 130.297 153.906 130.422 153.625C130.578 153.156 130.562 152.594 130.375 151.938C130.188 151.25 129.844 150.625 129.344 150.062C128.875 149.5 128.266 149.062 127.516 148.75C126.797 148.406 126 148.328 125.125 148.516C124.188 148.734 123.344 149.062 122.594 149.5C121.875 149.938 121.266 150.547 120.766 151.328C120.297 152.078 119.953 153.016 119.734 154.141C119.547 155.234 119.5 156.547 119.594 158.078C119.719 159.984 120.031 161.5 120.531 162.625C121.031 163.75 121.641 164.594 122.359 165.156C123.078 165.719 123.859 166.062 124.703 166.188C125.578 166.281 126.438 166.281 127.281 166.188C127.875 166.062 128.422 165.797 128.922 165.391C129.328 165.047 129.703 164.547 130.047 163.891C130.391 163.234 130.547 162.328 130.516 161.172L136.234 160.938C135.578 162.781 134.781 164.25 133.844 165.344C132.906 166.406 132 167.234 131.125 167.828C130.094 168.516 129.062 168.984 128.031 169.234C126.75 169.453 125.609 169.547 124.609 169.516C123.609 169.453 122.703 169.297 121.891 169.047C121.078 168.797 120.328 168.484 119.641 168.109C118.953 167.734 118.297 167.328 117.672 166.891C117.266 166.609 116.812 166.141 116.312 165.484C115.812 164.828 115.344 164.047 114.906 163.141C114.469 162.203 114.109 161.172 113.828 160.047C113.547 158.922 113.438 157.766 113.5 156.578C113.562 155.359 113.844 154.141 114.344 152.922C114.844 151.703 115.641 150.531 116.734 149.406C118.391 147.719 120.156 146.625 122.031 146.125C123.938 145.594 125.734 145.453 127.422 145.703C129.109 145.922 130.609 146.406 131.922 147.156C133.234 147.906 134.156 148.719 134.688 149.594C135.219 150.469 135.609 151.141 135.859 151.609C136.141 152.047 136.344 152.391 136.469 152.641C136.625 152.859 136.75 153.031 136.844 153.156C136.969 153.25 137.141 153.391 137.359 153.578C137.516 153.734 137.703 153.906 137.922 154.094C138.109 154.25 138.328 154.438 138.578 154.656C138.828 154.875 139.109 155.109 139.422 155.359ZM151.281 151C152.094 151 152.938 151.156 153.812 151.469C154.688 151.75 155.531 152.125 156.344 152.594C157.156 153.031 157.891 153.516 158.547 154.047C159.234 154.547 159.797 155.031 160.234 155.5C161.016 156.344 161.547 157.484 161.828 158.922C162.141 160.328 162.203 161.781 162.016 163.281C161.828 164.75 161.391 166.141 160.703 167.453C160.016 168.766 159.062 169.734 157.844 170.359C156.969 170.797 156.109 171.141 155.266 171.391C154.422 171.641 153.609 171.828 152.828 171.953C152.047 172.078 151.312 172.141 150.625 172.141C149.938 172.141 149.344 172.125 148.844 172.094C147.906 172.031 146.922 171.703 145.891 171.109C144.891 170.516 143.938 169.781 143.031 168.906C142.156 168.031 141.406 167.078 140.781 166.047C140.156 164.984 139.781 163.984 139.656 163.047C139.469 161.766 139.438 160.422 139.562 159.016C139.688 157.609 140.141 156.312 140.922 155.125C141.734 153.938 142.953 152.953 144.578 152.172C146.234 151.391 148.469 151 151.281 151ZM149.734 169.188C150.078 169.25 150.547 169.172 151.141 168.953C151.734 168.703 152.312 168.312 152.875 167.781C153.469 167.25 153.984 166.578 154.422 165.766C154.891 164.922 155.172 163.906 155.266 162.719C155.359 161.562 155.359 160.5 155.266 159.531C155.203 158.562 155.062 157.719 154.844 157C154.625 156.25 154.375 155.641 154.094 155.172C153.812 154.703 153.516 154.375 153.203 154.188C152.672 153.906 152.031 153.688 151.281 153.531C150.531 153.344 149.891 153.375 149.359 153.625C149.109 153.75 148.797 154.016 148.422 154.422C148.047 154.828 147.672 155.344 147.297 155.969C146.922 156.562 146.578 157.25 146.266 158.031C145.984 158.812 145.781 159.625 145.656 160.469C145.531 161.312 145.5 162.219 145.562 163.188C145.656 164.156 145.859 165.078 146.172 165.953C146.484 166.797 146.922 167.531 147.484 168.156C148.078 168.75 148.828 169.094 149.734 169.188ZM163.797 149.547C164.391 149.578 164.922 149.594 165.391 149.594C165.891 149.562 166.312 149.531 166.656 149.5C167.062 149.469 167.422 149.438 167.734 149.406C168.203 149.344 168.688 149.266 169.188 149.172C169.625 149.109 170.078 149.031 170.547 148.938C171.047 148.812 171.531 148.672 172 148.516C171.812 148.984 171.656 149.391 171.531 149.734C171.406 150.078 171.312 150.375 171.25 150.625C171.156 150.906 171.109 151.141 171.109 151.328C171.078 151.547 171.062 151.812 171.062 152.125C171.031 152.656 171.031 153.516 171.062 154.703C172.688 153.297 174.047 152.203 175.141 151.422C176.266 150.641 177.156 150.031 177.812 149.594C178.594 149.094 179.203 148.766 179.641 148.609C180.797 148.422 181.812 148.688 182.688 149.406C183.062 149.719 183.422 150.141 183.766 150.672C184.109 151.172 184.406 151.844 184.656 152.688C184.906 153.531 185.094 154.547 185.219 155.734C185.344 156.891 185.359 158.281 185.266 159.906C184.609 159.969 184.016 160.031 183.484 160.094C182.984 160.156 182.562 160.203 182.219 160.234C181.812 160.297 181.438 160.328 181.094 160.328L179.828 160.469C179.391 160.531 178.844 160.594 178.188 160.656C177.562 160.688 176.797 160.75 175.891 160.844C177.203 159.781 178.047 158.859 178.422 158.078C178.828 157.266 179 156.594 178.938 156.062C178.875 155.469 178.594 154.953 178.094 154.516C177.5 154.172 176.859 154.047 176.172 154.141C175.578 154.203 174.891 154.469 174.109 154.938C173.328 155.406 172.5 156.281 171.625 157.562C171.688 159.562 171.75 161.219 171.812 162.531C171.906 163.844 171.984 164.906 172.047 165.719C172.141 166.656 172.219 167.391 172.281 167.922C172.375 168.391 172.562 168.891 172.844 169.422C173.062 169.859 173.375 170.344 173.781 170.875C174.188 171.406 174.719 171.938 175.375 172.469C174 172.406 172.875 172.406 172 172.469C171.469 172.5 171 172.531 170.594 172.562C170.156 172.625 169.688 172.688 169.188 172.75C168.75 172.812 168.234 172.875 167.641 172.938C167.078 173.031 166.453 173.125 165.766 173.219C166.016 172.875 166.219 172.469 166.375 172C166.531 171.562 166.656 171.141 166.75 170.734C166.875 170.266 166.969 169.781 167.031 169.281C167.062 168.844 167.078 168.188 167.078 167.312C167.109 166.438 167.094 165.453 167.031 164.359C167 163.234 166.953 162.078 166.891 160.891C166.828 159.672 166.75 158.531 166.656 157.469C166.562 156.406 166.453 155.484 166.328 154.703C166.234 153.891 166.125 153.328 166 153.016C165.844 152.641 165.656 152.266 165.438 151.891C165.25 151.547 165.016 151.188 164.734 150.812C164.453 150.406 164.141 149.984 163.797 149.547ZM185.828 150.156C186.828 150 187.641 149.875 188.266 149.781C188.922 149.656 189.453 149.562 189.859 149.5C190.328 149.406 190.688 149.328 190.938 149.266C191.188 149.203 191.547 149.109 192.016 148.984C192.422 148.859 192.953 148.719 193.609 148.562C194.266 148.375 195.094 148.125 196.094 147.812C195.844 148.125 195.641 148.406 195.484 148.656C195.359 148.875 195.234 149.062 195.109 149.219C194.984 149.406 194.875 149.578 194.781 149.734C194.688 149.891 194.594 150.125 194.5 150.438C194.438 150.688 194.359 151.047 194.266 151.516C194.172 151.953 194.094 152.531 194.031 153.25C195.719 152.188 197.266 151.391 198.672 150.859C200.109 150.328 201.359 149.953 202.422 149.734C203.672 149.484 204.797 149.391 205.797 149.453C207.047 149.547 208.203 149.828 209.266 150.297C210.359 150.734 211.344 151.266 212.219 151.891C213.094 152.516 213.859 153.203 214.516 153.953C215.172 154.703 215.688 155.453 216.062 156.203C216.312 156.703 216.469 157.422 216.531 158.359C216.625 159.297 216.531 160.297 216.25 161.359C215.969 162.422 215.469 163.469 214.75 164.5C214.062 165.5 213.078 166.297 211.797 166.891C209.578 167.891 207.375 168.453 205.188 168.578C204.25 168.641 203.281 168.609 202.281 168.484C201.312 168.359 200.328 168.094 199.328 167.688C198.359 167.281 197.422 166.703 196.516 165.953C195.609 165.172 194.781 164.172 194.031 162.953C193.781 164.547 193.594 165.938 193.469 167.125C193.375 168.281 193.312 169.25 193.281 170.031C193.25 170.938 193.25 171.703 193.281 172.328C193.344 172.953 193.469 173.625 193.656 174.344C193.812 174.969 194.031 175.688 194.312 176.5C194.625 177.344 195.016 178.219 195.484 179.125C195.297 179.062 195.031 179.016 194.688 178.984C194.375 178.984 194.047 179.016 193.703 179.078C193.328 179.141 192.906 179.203 192.438 179.266C192 179.359 191.516 179.469 190.984 179.594C190.547 179.688 190.031 179.797 189.438 179.922C188.875 180.078 188.297 180.25 187.703 180.438C188.047 180.031 188.312 179.562 188.5 179.031C188.719 178.531 188.891 178.062 189.016 177.625C189.141 177.094 189.25 176.562 189.344 176.031C189.375 175.562 189.422 174.672 189.484 173.359C189.578 172.078 189.656 170.594 189.719 168.906C189.781 167.188 189.828 165.391 189.859 163.516C189.922 161.641 189.953 159.906 189.953 158.312C189.984 156.688 189.984 155.312 189.953 154.188C189.922 153.062 189.859 152.406 189.766 152.219C189.641 152 189.406 151.766 189.062 151.516C188.781 151.297 188.375 151.078 187.844 150.859C187.344 150.641 186.672 150.406 185.828 150.156ZM196.984 158.688C196.766 159.406 196.719 160.109 196.844 160.797C196.969 161.484 197.281 162.125 197.781 162.719C198.312 163.312 199.047 163.844 199.984 164.312C200.953 164.75 202.156 165.078 203.594 165.297C205.031 165.516 206.125 165.484 206.875 165.203C207.625 164.922 208.172 164.484 208.516 163.891C208.891 163.266 209.141 162.547 209.266 161.734C209.391 160.891 209.547 160.016 209.734 159.109C209.922 158.234 209.891 157.344 209.641 156.438C209.391 155.5 209.031 154.656 208.562 153.906C208.125 153.156 207.625 152.547 207.062 152.078C206.531 151.578 206.062 151.328 205.656 151.328C204.688 151.328 203.734 151.578 202.797 152.078C201.859 152.578 201 153.203 200.219 153.953C199.438 154.703 198.75 155.516 198.156 156.391C197.594 157.234 197.203 158 196.984 158.688ZM239.125 145.234C238.844 145.922 238.594 146.547 238.375 147.109C238.188 147.672 238.016 148.172 237.859 148.609C237.703 149.109 237.562 149.547 237.438 149.922C237.312 150.359 237.172 150.859 237.016 151.422C236.859 151.922 236.656 152.547 236.406 153.297C236.188 154.016 235.922 154.875 235.609 155.875C235.359 154.375 234.906 153.188 234.25 152.312C233.594 151.406 232.922 150.703 232.234 150.203C231.422 149.641 230.547 149.234 229.609 148.984C227.922 148.703 226.703 148.734 225.953 149.078C225.203 149.422 224.703 149.859 224.453 150.391C224.328 150.609 224.188 150.891 224.031 151.234C223.906 151.547 223.797 151.875 223.703 152.219C223.641 152.562 223.625 152.906 223.656 153.25C223.688 153.594 223.828 153.875 224.078 154.094C224.234 154.25 224.641 154.469 225.297 154.75C225.953 155 226.734 155.297 227.641 155.641C228.578 155.953 229.562 156.297 230.594 156.672C231.656 157.047 232.656 157.422 233.594 157.797C234.531 158.172 235.344 158.547 236.031 158.922C236.719 159.297 237.172 159.641 237.391 159.953C237.578 160.266 237.781 160.688 238 161.219C238.25 161.719 238.422 162.281 238.516 162.906C238.641 163.5 238.672 164.125 238.609 164.781C238.578 165.406 238.406 166.031 238.094 166.656C237.781 167.281 237.281 167.859 236.594 168.391C235.938 168.922 235.047 169.359 233.922 169.703C232.609 170.109 231.344 170.219 230.125 170.031C228.906 169.844 227.781 169.562 226.75 169.188C225.75 168.812 224.875 168.453 224.125 168.109C223.375 167.734 222.844 167.578 222.531 167.641C222.188 167.703 221.797 167.875 221.359 168.156C220.922 168.438 220.5 168.734 220.094 169.047C219.719 169.328 219.391 169.594 219.109 169.844C218.828 170.062 218.688 170.141 218.688 170.078C218.688 170.016 218.734 169.828 218.828 169.516C218.953 169.203 219.078 168.828 219.203 168.391C219.359 167.922 219.5 167.422 219.625 166.891C219.781 166.328 219.891 165.797 219.953 165.297C220.016 164.891 220.094 164.391 220.188 163.797C220.25 163.266 220.328 162.625 220.422 161.875C220.547 161.094 220.688 160.156 220.844 159.062C221 159.875 221.219 160.578 221.5 161.172C221.812 161.766 222.109 162.281 222.391 162.719C222.734 163.219 223.062 163.641 223.375 163.984C223.844 164.422 224.391 164.828 225.016 165.203C225.672 165.578 226.328 165.906 226.984 166.188C227.641 166.438 228.266 166.594 228.859 166.656C229.453 166.719 229.953 166.656 230.359 166.469C230.766 166.281 231.109 165.938 231.391 165.438C231.703 164.938 231.922 164.391 232.047 163.797C232.172 163.203 232.219 162.641 232.188 162.109C232.156 161.547 232.016 161.094 231.766 160.75C231.578 160.531 231.141 160.25 230.453 159.906C229.797 159.562 229 159.188 228.062 158.781C227.156 158.375 226.188 157.953 225.156 157.516C224.156 157.078 223.203 156.641 222.297 156.203C221.422 155.734 220.688 155.297 220.094 154.891C219.531 154.453 219.219 154.062 219.156 153.719C219.094 153.219 219.047 152.672 219.016 152.078C218.984 151.453 219.016 150.844 219.109 150.25C219.234 149.625 219.453 149.031 219.766 148.469C220.109 147.906 220.609 147.438 221.266 147.062C221.703 146.812 222.281 146.625 223 146.5C223.719 146.375 224.516 146.312 225.391 146.312C226.266 146.281 227.172 146.312 228.109 146.406C229.047 146.469 229.938 146.562 230.781 146.688C231.656 146.781 232.438 146.906 233.125 147.062C233.844 147.219 234.391 147.359 234.766 147.484C235.203 147.641 235.672 147.656 236.172 147.531C236.609 147.438 237.078 147.234 237.578 146.922C238.078 146.609 238.594 146.047 239.125 145.234Z" fill="black"/>
</svg>
