<svg width="356" height="290" viewBox="0 0 356 290" fill="none" xmlns="http://www.w3.org/2000/svg">
<rect width="356" height="290" fill="#DAA520"/>
<path d="M16.8672 133.016C17.7734 133.172 18.5703 133.281 19.2578 133.344C19.9766 133.406 20.5703 133.453 21.0391 133.484C21.6016 133.516 22.0859 133.531 22.4922 133.531C22.8984 133.531 23.4766 133.5 24.2266 133.438C24.8516 133.375 25.6641 133.297 26.6641 133.203C27.6953 133.109 28.9609 132.953 30.4609 132.734C30.0234 132.859 29.6172 133.219 29.2422 133.812C28.8984 134.375 28.5859 134.984 28.3047 135.641C27.9609 136.422 27.6641 137.281 27.4141 138.219C27.1953 139.062 26.9141 140.219 26.5703 141.688C26.2578 143.156 25.9453 144.75 25.6328 146.469C25.3516 148.188 25.1328 149.938 24.9766 151.719C24.8203 153.469 24.7891 155.078 24.8828 156.547C25.0078 158.016 25.3047 159.234 25.7734 160.203C26.2422 161.141 26.9609 161.641 27.9297 161.703C29.3984 161.828 30.6172 161.844 31.5859 161.75C32.5859 161.625 33.3984 161.453 34.0234 161.234C34.6484 161.016 35.1328 160.766 35.4766 160.484C35.8203 160.172 36.0859 159.875 36.2734 159.594C36.7734 158.875 37.2891 157.953 37.8203 156.828C38.3516 155.703 38.8203 154.625 39.2266 153.594C39.6641 152.562 40.0234 151.688 40.3047 150.969C40.5859 150.25 40.7266 149.906 40.7266 149.938C40.7266 150 40.7109 150.359 40.6797 151.016C40.6797 151.641 40.6641 152.406 40.6328 153.312C40.6328 154.188 40.6172 155.109 40.5859 156.078C40.5859 157.047 40.5703 157.875 40.5391 158.562C40.5078 159.125 40.4766 159.75 40.4453 160.438C40.4141 161.031 40.3828 161.734 40.3516 162.547C40.3516 163.359 40.3203 164.25 40.2578 165.219C38.9453 165.125 37.6953 165.062 36.5078 165.031C35.3203 165 34.2734 164.984 33.3672 164.984C32.3047 164.984 31.3203 165 30.4141 165.031C29.4453 165.062 28.3203 165.109 27.0391 165.172C25.9453 165.234 24.5859 165.312 22.9609 165.406C21.3359 165.469 19.4609 165.562 17.3359 165.688C17.5859 165.25 17.7891 164.844 17.9453 164.469C18.1328 164.094 18.2734 163.781 18.3672 163.531C18.4922 163.219 18.5703 162.953 18.6016 162.734C18.7891 161.734 18.9453 160.469 19.0703 158.938C19.1953 157.375 19.2891 155.719 19.3516 153.969C19.4453 152.219 19.4922 150.438 19.4922 148.625C19.5234 146.781 19.5234 145.078 19.4922 143.516C19.4609 141.953 19.3984 140.594 19.3047 139.438C19.2422 138.281 19.1484 137.484 19.0234 137.047C18.8672 136.547 18.6797 136.047 18.4609 135.547C18.2734 135.109 18.0391 134.672 17.7578 134.234C17.5078 133.766 17.2109 133.359 16.8672 133.016ZM45.6484 137.516C45.1797 137.359 44.8047 137.094 44.5234 136.719C44.2422 136.312 44.0859 135.875 44.0547 135.406C44.0547 134.938 44.1797 134.484 44.4297 134.047C44.7109 133.578 45.1328 133.188 45.6953 132.875C46.6016 132.375 47.3828 132.25 48.0391 132.5C48.7266 132.75 49.2266 133.125 49.5391 133.625C49.6953 133.875 49.8047 134.219 49.8672 134.656C49.9609 135.062 49.9922 135.516 49.9609 136.016C49.9609 136.484 49.9141 136.953 49.8203 137.422C49.7266 137.891 49.5859 138.281 49.3984 138.594C49.2422 138.844 49.0547 139.094 48.8359 139.344C48.6484 139.562 48.4141 139.781 48.1328 140C47.8828 140.219 47.5859 140.422 47.2422 140.609L45.5547 140.469C45.7734 140.219 45.9766 140 46.1641 139.812C46.3516 139.594 46.5078 139.406 46.6328 139.25C46.7578 139.094 46.8828 138.953 47.0078 138.828C47.1953 138.609 47.3516 138.391 47.4766 138.172C47.6016 137.984 47.7109 137.797 47.8047 137.609C47.8984 137.391 47.9141 137.172 47.8516 136.953C47.6016 137.203 47.3516 137.375 47.1016 137.469C46.8516 137.562 46.6172 137.609 46.3984 137.609C46.1484 137.641 45.8984 137.609 45.6484 137.516ZM65.2891 159.453C66.1641 159.453 66.9766 159.359 67.7266 159.172C68.3516 159.016 68.9453 158.766 69.5078 158.422C70.1016 158.047 70.4922 157.5 70.6797 156.781C71.3047 156.906 71.8359 157.016 72.2734 157.109C72.7109 157.172 73.0859 157.234 73.3984 157.297C73.7422 157.391 74.0391 157.453 74.2891 157.484C74.5391 157.547 74.8359 157.609 75.1797 157.672C75.4922 157.734 75.8672 157.812 76.3047 157.906C76.7734 157.969 77.3203 158.062 77.9453 158.188C77.4766 158.125 76.9922 158.172 76.4922 158.328C76.0234 158.484 75.5703 158.656 75.1328 158.844C74.6328 159.062 74.1641 159.328 73.7266 159.641C73.4453 159.828 73.1172 160.109 72.7422 160.484C72.3984 160.859 71.8984 161.219 71.2422 161.562C70.5859 161.906 69.7109 162.203 68.6172 162.453C67.5547 162.672 66.1797 162.75 64.4922 162.688C62.4609 162.625 60.7578 162.266 59.3828 161.609C58.0078 160.922 56.8984 160.094 56.0547 159.125C55.2109 158.125 54.6016 157.047 54.2266 155.891C53.8516 154.734 53.6484 153.656 53.6172 152.656C53.5859 151.656 53.8828 150.609 54.5078 149.516C55.1328 148.422 56.0078 147.422 57.1328 146.516C58.2891 145.609 59.6797 144.875 61.3047 144.312C62.9297 143.719 64.7109 143.422 66.6484 143.422C67.7734 143.422 68.8047 143.562 69.7422 143.844C70.7109 144.094 71.5859 144.438 72.3672 144.875C73.1797 145.312 73.8828 145.812 74.4766 146.375C75.0703 146.906 75.5703 147.453 75.9766 148.016C76.3828 148.609 76.7266 149.234 77.0078 149.891C77.2578 150.453 77.4609 151.094 77.6172 151.812C77.7734 152.531 77.8203 153.266 77.7578 154.016C75.3828 154.078 73.4609 154.125 71.9922 154.156C70.5547 154.188 69.4297 154.203 68.6172 154.203H66.5078H64.9141C64.3516 154.203 63.6172 154.219 62.7109 154.25C61.8047 154.281 60.6953 154.328 59.3828 154.391C59.5391 155.641 59.9297 156.609 60.5547 157.297C61.2109 157.953 61.8984 158.453 62.6172 158.797C63.4297 159.172 64.3203 159.391 65.2891 159.453ZM61.0703 151.016C62.0703 151.078 62.8984 151.125 63.5547 151.156C64.2422 151.188 64.8047 151.219 65.2422 151.25C65.7109 151.281 66.0859 151.297 66.3672 151.297H67.5391C68.3203 151.297 69.7734 151.25 71.8984 151.156C71.8047 149.781 71.5078 148.734 71.0078 148.016C70.5391 147.297 70.0391 146.766 69.5078 146.422C68.8828 146.047 68.1953 145.828 67.4453 145.766C65.4141 145.797 63.8984 146.219 62.8984 147.031C61.9297 147.844 61.3203 149.172 61.0703 151.016ZM76.5391 141.172C77.0703 141.266 77.6172 141.344 78.1797 141.406C78.7109 141.438 79.1953 141.469 79.6328 141.5C80.1328 141.531 80.6172 141.547 81.0859 141.547C81.5547 141.547 82.0859 141.531 82.6797 141.5C83.1797 141.469 83.7734 141.422 84.4609 141.359C85.1797 141.297 85.9609 141.203 86.8047 141.078C86.3047 141.359 85.9141 141.656 85.6328 141.969C85.3516 142.281 85.1328 142.562 84.9766 142.812C84.7891 143.125 84.6641 143.406 84.6016 143.656C84.5391 143.906 84.5547 144.422 84.6484 145.203C84.7422 145.984 84.8672 146.891 85.0234 147.922C85.2109 148.953 85.4141 150.031 85.6328 151.156C85.8516 152.281 86.0703 153.312 86.2891 154.25C86.5391 155.188 86.7578 155.969 86.9453 156.594C87.1641 157.219 87.3359 157.516 87.4609 157.484C87.5859 157.484 87.7734 157.172 88.0234 156.547C88.3047 155.922 88.6172 155.156 88.9609 154.25C89.3047 153.312 89.6641 152.297 90.0391 151.203C90.4141 150.078 90.7422 149.031 91.0234 148.062C91.3047 147.094 91.5234 146.281 91.6797 145.625C91.8672 144.938 91.9453 144.531 91.9141 144.406C91.8203 144.281 91.7109 144.109 91.5859 143.891C91.3672 143.547 90.8828 142.953 90.1328 142.109C91.0391 142.172 91.8203 142.234 92.4766 142.297C93.1328 142.328 93.6641 142.375 94.0703 142.438C94.5391 142.5 94.9141 142.547 95.1953 142.578C95.4766 142.609 95.8828 142.609 96.4141 142.578C96.8516 142.578 97.4297 142.562 98.1484 142.531C98.8984 142.469 99.8203 142.375 100.914 142.25C100.102 142.719 99.4297 143.141 98.8984 143.516C98.3984 143.859 98.0078 144.156 97.7266 144.406C97.3828 144.719 97.1328 144.984 96.9766 145.203C96.7578 145.609 96.3672 146.578 95.8047 148.109C95.5547 148.766 95.2422 149.578 94.8672 150.547C94.5234 151.516 94.1016 152.688 93.6016 154.062C93.1328 155.406 92.5703 156.984 91.9141 158.797C91.2578 160.609 90.5234 162.688 89.7109 165.031L85.1641 165.5C84.5703 163.531 84.0859 161.891 83.7109 160.578C83.3672 159.234 83.0859 158.156 82.8672 157.344C82.6172 156.406 82.4297 155.672 82.3047 155.141C82.1484 154.547 81.9609 153.688 81.7422 152.562C81.5234 151.406 81.3047 150.234 81.0859 149.047C80.8672 147.859 80.6484 146.797 80.4297 145.859C80.2109 144.891 80.0391 144.297 79.9141 144.078C79.7891 143.922 79.5703 143.703 79.2578 143.422C79.0078 143.172 78.6641 142.875 78.2266 142.531C77.7891 142.156 77.2266 141.703 76.5391 141.172ZM110.711 159.453C111.586 159.453 112.398 159.359 113.148 159.172C113.773 159.016 114.367 158.766 114.93 158.422C115.523 158.047 115.914 157.5 116.102 156.781C116.727 156.906 117.258 157.016 117.695 157.109C118.133 157.172 118.508 157.234 118.82 157.297C119.164 157.391 119.461 157.453 119.711 157.484C119.961 157.547 120.258 157.609 120.602 157.672C120.914 157.734 121.289 157.812 121.727 157.906C122.195 157.969 122.742 158.062 123.367 158.188C122.898 158.125 122.414 158.172 121.914 158.328C121.445 158.484 120.992 158.656 120.555 158.844C120.055 159.062 119.586 159.328 119.148 159.641C118.867 159.828 118.539 160.109 118.164 160.484C117.82 160.859 117.32 161.219 116.664 161.562C116.008 161.906 115.133 162.203 114.039 162.453C112.977 162.672 111.602 162.75 109.914 162.688C107.883 162.625 106.18 162.266 104.805 161.609C103.43 160.922 102.32 160.094 101.477 159.125C100.633 158.125 100.023 157.047 99.6484 155.891C99.2734 154.734 99.0703 153.656 99.0391 152.656C99.0078 151.656 99.3047 150.609 99.9297 149.516C100.555 148.422 101.43 147.422 102.555 146.516C103.711 145.609 105.102 144.875 106.727 144.312C108.352 143.719 110.133 143.422 112.07 143.422C113.195 143.422 114.227 143.562 115.164 143.844C116.133 144.094 117.008 144.438 117.789 144.875C118.602 145.312 119.305 145.812 119.898 146.375C120.492 146.906 120.992 147.453 121.398 148.016C121.805 148.609 122.148 149.234 122.43 149.891C122.68 150.453 122.883 151.094 123.039 151.812C123.195 152.531 123.242 153.266 123.18 154.016C120.805 154.078 118.883 154.125 117.414 154.156C115.977 154.188 114.852 154.203 114.039 154.203H111.93H110.336C109.773 154.203 109.039 154.219 108.133 154.25C107.227 154.281 106.117 154.328 104.805 154.391C104.961 155.641 105.352 156.609 105.977 157.297C106.633 157.953 107.32 158.453 108.039 158.797C108.852 159.172 109.742 159.391 110.711 159.453ZM106.492 151.016C107.492 151.078 108.32 151.125 108.977 151.156C109.664 151.188 110.227 151.219 110.664 151.25C111.133 151.281 111.508 151.297 111.789 151.297H112.961C113.742 151.297 115.195 151.25 117.32 151.156C117.227 149.781 116.93 148.734 116.43 148.016C115.961 147.297 115.461 146.766 114.93 146.422C114.305 146.047 113.617 145.828 112.867 145.766C110.836 145.797 109.32 146.219 108.32 147.031C107.352 147.844 106.742 149.172 106.492 151.016ZM126.508 161.844C126.727 160.812 126.883 159.906 126.977 159.125C127.102 158.312 127.195 157.641 127.258 157.109C127.32 156.484 127.352 155.953 127.352 155.516C127.32 154.984 127.289 154.359 127.258 153.641C127.258 152.891 127.227 152.156 127.164 151.438C127.133 150.688 127.086 150.031 127.023 149.469C126.961 148.875 126.883 148.453 126.789 148.203C126.664 147.953 126.492 147.688 126.273 147.406C125.836 146.875 125.195 146.359 124.352 145.859C125.07 145.703 125.68 145.578 126.18 145.484C126.711 145.359 127.148 145.25 127.492 145.156C127.867 145.031 128.195 144.922 128.477 144.828C128.727 144.734 129.023 144.641 129.367 144.547C129.648 144.484 129.992 144.406 130.398 144.312C130.805 144.219 131.273 144.109 131.805 143.984L131.664 148.25C132.664 147.062 133.68 146.172 134.711 145.578C135.742 144.984 136.711 144.562 137.617 144.312C138.648 144 139.664 143.844 140.664 143.844C141.914 143.906 143.07 144.109 144.133 144.453C145.227 144.797 146.164 145.203 146.945 145.672C147.758 146.109 148.414 146.578 148.914 147.078C149.414 147.578 149.711 148.016 149.805 148.391C150.18 149.609 150.273 150.734 150.086 151.766C149.898 152.766 149.648 153.75 149.336 154.719C149.055 155.656 148.805 156.594 148.586 157.531C148.398 158.469 148.477 159.484 148.82 160.578C148.945 160.859 149.07 161.141 149.195 161.422C149.32 161.672 149.477 161.922 149.664 162.172C149.852 162.422 150.07 162.625 150.32 162.781C149.977 162.75 149.633 162.734 149.289 162.734C148.945 162.703 148.633 162.672 148.352 162.641C148.008 162.609 147.695 162.578 147.414 162.547C147.102 162.516 146.68 162.5 146.148 162.5C145.242 162.5 143.836 162.547 141.93 162.641C142.211 161.984 142.43 161.438 142.586 161C142.773 160.531 142.93 160.156 143.055 159.875C143.18 159.531 143.273 159.266 143.336 159.078C143.711 158.172 143.93 157.141 143.992 155.984C144.086 154.828 144.008 153.656 143.758 152.469C143.664 152.062 143.508 151.578 143.289 151.016C143.07 150.453 142.773 149.906 142.398 149.375C142.055 148.844 141.633 148.391 141.133 148.016C140.664 147.641 140.117 147.422 139.492 147.359C138.867 147.297 138.164 147.453 137.383 147.828C136.633 148.203 135.82 148.891 134.945 149.891C134.289 150.734 133.773 151.766 133.398 152.984C133.055 154.016 132.82 155.312 132.695 156.875C132.57 158.406 132.758 160.203 133.258 162.266C132.82 162.203 132.414 162.172 132.039 162.172C131.664 162.141 131.352 162.109 131.102 162.078C130.789 162.047 130.508 162.016 130.258 161.984C129.977 161.984 129.664 161.969 129.32 161.938C129.008 161.938 128.617 161.938 128.148 161.938C127.68 161.906 127.133 161.875 126.508 161.844ZM165.367 159.453C166.242 159.453 167.055 159.359 167.805 159.172C168.43 159.016 169.023 158.766 169.586 158.422C170.18 158.047 170.57 157.5 170.758 156.781C171.383 156.906 171.914 157.016 172.352 157.109C172.789 157.172 173.164 157.234 173.477 157.297C173.82 157.391 174.117 157.453 174.367 157.484C174.617 157.547 174.914 157.609 175.258 157.672C175.57 157.734 175.945 157.812 176.383 157.906C176.852 157.969 177.398 158.062 178.023 158.188C177.555 158.125 177.07 158.172 176.57 158.328C176.102 158.484 175.648 158.656 175.211 158.844C174.711 159.062 174.242 159.328 173.805 159.641C173.523 159.828 173.195 160.109 172.82 160.484C172.477 160.859 171.977 161.219 171.32 161.562C170.664 161.906 169.789 162.203 168.695 162.453C167.633 162.672 166.258 162.75 164.57 162.688C162.539 162.625 160.836 162.266 159.461 161.609C158.086 160.922 156.977 160.094 156.133 159.125C155.289 158.125 154.68 157.047 154.305 155.891C153.93 154.734 153.727 153.656 153.695 152.656C153.664 151.656 153.961 150.609 154.586 149.516C155.211 148.422 156.086 147.422 157.211 146.516C158.367 145.609 159.758 144.875 161.383 144.312C163.008 143.719 164.789 143.422 166.727 143.422C167.852 143.422 168.883 143.562 169.82 143.844C170.789 144.094 171.664 144.438 172.445 144.875C173.258 145.312 173.961 145.812 174.555 146.375C175.148 146.906 175.648 147.453 176.055 148.016C176.461 148.609 176.805 149.234 177.086 149.891C177.336 150.453 177.539 151.094 177.695 151.812C177.852 152.531 177.898 153.266 177.836 154.016C175.461 154.078 173.539 154.125 172.07 154.156C170.633 154.188 169.508 154.203 168.695 154.203H166.586H164.992C164.43 154.203 163.695 154.219 162.789 154.25C161.883 154.281 160.773 154.328 159.461 154.391C159.617 155.641 160.008 156.609 160.633 157.297C161.289 157.953 161.977 158.453 162.695 158.797C163.508 159.172 164.398 159.391 165.367 159.453ZM161.148 151.016C162.148 151.078 162.977 151.125 163.633 151.156C164.32 151.188 164.883 151.219 165.32 151.25C165.789 151.281 166.164 151.297 166.445 151.297H167.617C168.398 151.297 169.852 151.25 171.977 151.156C171.883 149.781 171.586 148.734 171.086 148.016C170.617 147.297 170.117 146.766 169.586 146.422C168.961 146.047 168.273 145.828 167.523 145.766C165.492 145.797 163.977 146.219 162.977 147.031C162.008 147.844 161.398 149.172 161.148 151.016ZM179.477 144.781C180.195 144.719 180.805 144.656 181.305 144.594C181.836 144.531 182.273 144.469 182.617 144.406C183.023 144.344 183.367 144.281 183.648 144.219C183.93 144.188 184.242 144.125 184.586 144.031C184.898 143.969 185.242 143.891 185.617 143.797C186.023 143.672 186.461 143.531 186.93 143.375L186.648 149.328C187.336 148.234 188.133 147.406 189.039 146.844C189.945 146.25 190.805 145.812 191.617 145.531C192.586 145.188 193.555 144.984 194.523 144.922C195.523 144.953 196.445 145.109 197.289 145.391C198.008 145.641 198.727 146.031 199.445 146.562C200.195 147.094 200.773 147.875 201.18 148.906C202.242 147.812 203.289 146.969 204.32 146.375C205.383 145.75 206.32 145.281 207.133 144.969C208.102 144.625 209.008 144.422 209.852 144.359C210.977 144.328 212.008 144.516 212.945 144.922C213.914 145.328 214.758 145.844 215.477 146.469C216.195 147.062 216.773 147.703 217.211 148.391C217.648 149.047 217.898 149.625 217.961 150.125C218.055 150.812 218.008 151.703 217.82 152.797C217.633 153.859 217.414 154.953 217.164 156.078C216.914 157.172 216.68 158.188 216.461 159.125C216.273 160.031 216.195 160.672 216.227 161.047C216.32 161.359 216.539 161.734 216.883 162.172C217.195 162.547 217.648 163.016 218.242 163.578C218.867 164.109 219.758 164.734 220.914 165.453C219.914 165.422 219.023 165.391 218.242 165.359C217.492 165.328 216.852 165.281 216.32 165.219C215.695 165.156 215.148 165.109 214.68 165.078C214.305 165.078 213.852 165.047 213.32 164.984C212.883 164.953 212.305 164.906 211.586 164.844C210.898 164.781 210.102 164.719 209.195 164.656C209.539 164.562 209.82 164.391 210.039 164.141C210.258 163.859 210.445 163.594 210.602 163.344C210.758 163.031 210.883 162.688 210.977 162.312C211.039 162 211.102 161.5 211.164 160.812C211.227 160.125 211.273 159.344 211.305 158.469C211.367 157.594 211.398 156.672 211.398 155.703C211.43 154.734 211.43 153.812 211.398 152.938C211.367 152.062 211.305 151.266 211.211 150.547C211.117 149.828 210.992 149.281 210.836 148.906C210.711 148.625 210.492 148.406 210.18 148.25C209.867 148.062 209.508 147.953 209.102 147.922C208.695 147.859 208.289 147.875 207.883 147.969C207.477 148.031 207.117 148.156 206.805 148.344C206.523 148.562 206.148 148.859 205.68 149.234C205.273 149.578 204.742 150.047 204.086 150.641C203.43 151.234 202.602 151.984 201.602 152.891C201.508 154.859 201.43 156.453 201.367 157.672C201.336 158.859 201.305 159.766 201.273 160.391C201.242 161.141 201.227 161.656 201.227 161.938C201.195 162.188 201.211 162.422 201.273 162.641C201.336 163.109 201.523 163.547 201.836 163.953C201.461 163.859 201.055 163.797 200.617 163.766C200.211 163.734 199.836 163.703 199.492 163.672C199.086 163.641 198.68 163.625 198.273 163.625C197.93 163.625 197.555 163.641 197.148 163.672C196.805 163.703 196.383 163.75 195.883 163.812C195.383 163.844 194.836 163.891 194.242 163.953C194.492 163.797 194.695 163.609 194.852 163.391C195.008 163.172 195.133 162.969 195.227 162.781C195.352 162.562 195.445 162.359 195.508 162.172C195.539 161.984 195.602 161.531 195.695 160.812C195.789 160.062 195.852 159.188 195.883 158.188C195.914 157.188 195.914 156.141 195.883 155.047C195.852 153.922 195.742 152.906 195.555 152C195.367 151.062 195.07 150.297 194.664 149.703C194.289 149.109 193.789 148.844 193.164 148.906C192.414 148.969 191.648 149.156 190.867 149.469C190.211 149.719 189.508 150.094 188.758 150.594C188.008 151.094 187.305 151.766 186.648 152.609C186.523 154.953 186.445 156.812 186.414 158.188C186.414 159.562 186.43 160.609 186.461 161.328C186.492 162.172 186.523 162.75 186.555 163.062C186.586 163.281 186.664 163.5 186.789 163.719C186.883 163.906 186.992 164.125 187.117 164.375C187.273 164.625 187.445 164.859 187.633 165.078L180.18 164.703C180.43 164.578 180.648 164.422 180.836 164.234C181.023 164.016 181.18 163.797 181.305 163.578C181.43 163.328 181.555 163.078 181.68 162.828C181.773 162.609 181.852 162.094 181.914 161.281C182.008 160.469 182.086 159.516 182.148 158.422C182.211 157.297 182.258 156.125 182.289 154.906C182.352 153.656 182.383 152.5 182.383 151.438C182.414 150.344 182.43 149.422 182.43 148.672C182.43 147.891 182.414 147.422 182.383 147.266C182.289 146.953 182.117 146.625 181.867 146.281C181.648 146.031 181.352 145.766 180.977 145.484C180.602 145.172 180.102 144.938 179.477 144.781ZM233.336 159.453C234.211 159.453 235.023 159.359 235.773 159.172C236.398 159.016 236.992 158.766 237.555 158.422C238.148 158.047 238.539 157.5 238.727 156.781C239.352 156.906 239.883 157.016 240.32 157.109C240.758 157.172 241.133 157.234 241.445 157.297C241.789 157.391 242.086 157.453 242.336 157.484C242.586 157.547 242.883 157.609 243.227 157.672C243.539 157.734 243.914 157.812 244.352 157.906C244.82 157.969 245.367 158.062 245.992 158.188C245.523 158.125 245.039 158.172 244.539 158.328C244.07 158.484 243.617 158.656 243.18 158.844C242.68 159.062 242.211 159.328 241.773 159.641C241.492 159.828 241.164 160.109 240.789 160.484C240.445 160.859 239.945 161.219 239.289 161.562C238.633 161.906 237.758 162.203 236.664 162.453C235.602 162.672 234.227 162.75 232.539 162.688C230.508 162.625 228.805 162.266 227.43 161.609C226.055 160.922 224.945 160.094 224.102 159.125C223.258 158.125 222.648 157.047 222.273 155.891C221.898 154.734 221.695 153.656 221.664 152.656C221.633 151.656 221.93 150.609 222.555 149.516C223.18 148.422 224.055 147.422 225.18 146.516C226.336 145.609 227.727 144.875 229.352 144.312C230.977 143.719 232.758 143.422 234.695 143.422C235.82 143.422 236.852 143.562 237.789 143.844C238.758 144.094 239.633 144.438 240.414 144.875C241.227 145.312 241.93 145.812 242.523 146.375C243.117 146.906 243.617 147.453 244.023 148.016C244.43 148.609 244.773 149.234 245.055 149.891C245.305 150.453 245.508 151.094 245.664 151.812C245.82 152.531 245.867 153.266 245.805 154.016C243.43 154.078 241.508 154.125 240.039 154.156C238.602 154.188 237.477 154.203 236.664 154.203H234.555H232.961C232.398 154.203 231.664 154.219 230.758 154.25C229.852 154.281 228.742 154.328 227.43 154.391C227.586 155.641 227.977 156.609 228.602 157.297C229.258 157.953 229.945 158.453 230.664 158.797C231.477 159.172 232.367 159.391 233.336 159.453ZM229.117 151.016C230.117 151.078 230.945 151.125 231.602 151.156C232.289 151.188 232.852 151.219 233.289 151.25C233.758 151.281 234.133 151.297 234.414 151.297H235.586C236.367 151.297 237.82 151.25 239.945 151.156C239.852 149.781 239.555 148.734 239.055 148.016C238.586 147.297 238.086 146.766 237.555 146.422C236.93 146.047 236.242 145.828 235.492 145.766C233.461 145.797 231.945 146.219 230.945 147.031C229.977 147.844 229.367 149.172 229.117 151.016ZM249.133 161.844C249.352 160.812 249.508 159.906 249.602 159.125C249.727 158.312 249.82 157.641 249.883 157.109C249.945 156.484 249.977 155.953 249.977 155.516C249.945 154.984 249.914 154.359 249.883 153.641C249.883 152.891 249.852 152.156 249.789 151.438C249.758 150.688 249.711 150.031 249.648 149.469C249.586 148.875 249.508 148.453 249.414 148.203C249.289 147.953 249.117 147.688 248.898 147.406C248.461 146.875 247.82 146.359 246.977 145.859C247.695 145.703 248.305 145.578 248.805 145.484C249.336 145.359 249.773 145.25 250.117 145.156C250.492 145.031 250.82 144.922 251.102 144.828C251.352 144.734 251.648 144.641 251.992 144.547C252.273 144.484 252.617 144.406 253.023 144.312C253.43 144.219 253.898 144.109 254.43 143.984L254.289 148.25C255.289 147.062 256.305 146.172 257.336 145.578C258.367 144.984 259.336 144.562 260.242 144.312C261.273 144 262.289 143.844 263.289 143.844C264.539 143.906 265.695 144.109 266.758 144.453C267.852 144.797 268.789 145.203 269.57 145.672C270.383 146.109 271.039 146.578 271.539 147.078C272.039 147.578 272.336 148.016 272.43 148.391C272.805 149.609 272.898 150.734 272.711 151.766C272.523 152.766 272.273 153.75 271.961 154.719C271.68 155.656 271.43 156.594 271.211 157.531C271.023 158.469 271.102 159.484 271.445 160.578C271.57 160.859 271.695 161.141 271.82 161.422C271.945 161.672 272.102 161.922 272.289 162.172C272.477 162.422 272.695 162.625 272.945 162.781C272.602 162.75 272.258 162.734 271.914 162.734C271.57 162.703 271.258 162.672 270.977 162.641C270.633 162.609 270.32 162.578 270.039 162.547C269.727 162.516 269.305 162.5 268.773 162.5C267.867 162.5 266.461 162.547 264.555 162.641C264.836 161.984 265.055 161.438 265.211 161C265.398 160.531 265.555 160.156 265.68 159.875C265.805 159.531 265.898 159.266 265.961 159.078C266.336 158.172 266.555 157.141 266.617 155.984C266.711 154.828 266.633 153.656 266.383 152.469C266.289 152.062 266.133 151.578 265.914 151.016C265.695 150.453 265.398 149.906 265.023 149.375C264.68 148.844 264.258 148.391 263.758 148.016C263.289 147.641 262.742 147.422 262.117 147.359C261.492 147.297 260.789 147.453 260.008 147.828C259.258 148.203 258.445 148.891 257.57 149.891C256.914 150.734 256.398 151.766 256.023 152.984C255.68 154.016 255.445 155.312 255.32 156.875C255.195 158.406 255.383 160.203 255.883 162.266C255.445 162.203 255.039 162.172 254.664 162.172C254.289 162.141 253.977 162.109 253.727 162.078C253.414 162.047 253.133 162.016 252.883 161.984C252.602 161.984 252.289 161.969 251.945 161.938C251.633 161.938 251.242 161.938 250.773 161.938C250.305 161.906 249.758 161.875 249.133 161.844ZM275.242 137.469C276.18 137.562 276.961 137.641 277.586 137.703C278.242 137.766 278.773 137.812 279.18 137.844C279.648 137.875 280.023 137.891 280.305 137.891C280.586 137.922 280.961 137.922 281.43 137.891C281.836 137.859 282.367 137.828 283.023 137.797C283.68 137.734 284.508 137.641 285.508 137.516C285.289 137.828 285.117 138.109 284.992 138.359C284.867 138.578 284.758 138.781 284.664 138.969L284.383 139.531C284.32 139.719 284.258 139.906 284.195 140.094C284.133 140.25 284.07 140.438 284.008 140.656C283.977 140.875 283.945 141.109 283.914 141.359H291.133L290.477 145.156L283.867 144.781C283.711 146.375 283.602 147.609 283.539 148.484C283.477 149.359 283.414 150 283.352 150.406L283.258 151.25C283.164 152.438 283.07 153.734 282.977 155.141C282.883 156.516 282.852 157.797 282.883 158.984C282.914 160.172 283.023 161.172 283.211 161.984C283.398 162.766 283.727 163.156 284.195 163.156C284.664 163.156 285.102 163.031 285.508 162.781C285.914 162.531 286.258 162.234 286.539 161.891C286.852 161.547 287.086 161.203 287.242 160.859C287.398 160.484 287.477 160.203 287.477 160.016C287.477 159.828 287.43 159.609 287.336 159.359C287.18 158.891 286.898 158.297 286.492 157.578C287.398 157.797 288.195 158.016 288.883 158.234C289.227 158.359 289.539 158.484 289.82 158.609C290.133 158.734 290.492 158.875 290.898 159.031C291.242 159.188 291.68 159.375 292.211 159.594C292.742 159.812 293.367 160.078 294.086 160.391C293.398 160.516 292.898 160.719 292.586 161C292.398 161.125 292.258 161.266 292.164 161.422C291.945 161.766 291.695 162.234 291.414 162.828C291.133 163.391 290.711 163.953 290.148 164.516C289.586 165.078 288.82 165.578 287.852 166.016C286.914 166.453 285.648 166.703 284.055 166.766C282.398 166.828 281.133 166.547 280.258 165.922C279.414 165.297 278.789 164.578 278.383 163.766C278.008 162.922 277.789 162.094 277.727 161.281C277.664 160.469 277.617 159.922 277.586 159.641C277.555 159.359 277.555 158.656 277.586 157.531C277.617 156.406 277.664 155.172 277.727 153.828C277.789 152.453 277.852 151.141 277.914 149.891C277.977 148.609 278.008 147.672 278.008 147.078C278.008 146.766 278.023 146.438 278.055 146.094C278.055 145.812 278.055 145.516 278.055 145.203C278.086 144.859 278.102 144.531 278.102 144.219L271.305 144.172L271.023 141.5L277.867 141.688C277.805 141.344 277.727 141.031 277.633 140.75C277.57 140.438 277.508 140.188 277.445 140C277.352 139.781 277.258 139.594 277.164 139.438C277.039 139.281 276.898 139.109 276.742 138.922C276.586 138.766 276.383 138.562 276.133 138.312C275.883 138.062 275.586 137.781 275.242 137.469ZM292.164 146.047L300.789 146.141C300.289 148.047 299.914 149.672 299.664 151.016C299.445 152.359 299.305 153.484 299.242 154.391C299.117 155.422 299.086 156.297 299.148 157.016C299.242 157.672 299.398 158.375 299.617 159.125C299.805 159.75 300.086 160.469 300.461 161.281C300.836 162.094 301.336 162.906 301.961 163.719C301.586 163.594 301.18 163.5 300.742 163.438C300.305 163.375 299.898 163.328 299.523 163.297C299.086 163.266 298.648 163.266 298.211 163.297C297.773 163.328 297.289 163.375 296.758 163.438C296.32 163.5 295.789 163.578 295.164 163.672C294.539 163.766 293.883 163.891 293.195 164.047C293.664 162.641 294.023 161.422 294.273 160.391C294.555 159.359 294.758 158.5 294.883 157.812C295.008 157 295.086 156.344 295.117 155.844C295.117 155.219 295.117 154.516 295.117 153.734C295.117 152.922 295.117 152.141 295.117 151.391C295.117 150.641 295.102 149.984 295.07 149.422C295.039 148.828 294.977 148.453 294.883 148.297L294.414 147.828C294.227 147.672 293.945 147.453 293.57 147.172C293.227 146.859 292.758 146.484 292.164 146.047ZM295.492 138.828C296.148 138.484 296.805 138.391 297.461 138.547C298.148 138.703 298.68 139 299.055 139.438C299.43 139.875 299.555 140.391 299.43 140.984C299.336 141.578 298.836 142.156 297.93 142.719C297.023 143.25 296.227 143.438 295.539 143.281C294.852 143.125 294.367 142.797 294.086 142.297C293.805 141.797 293.758 141.219 293.945 140.562C294.133 139.875 294.648 139.297 295.492 138.828ZM315.836 159.453C316.711 159.453 317.523 159.359 318.273 159.172C318.898 159.016 319.492 158.766 320.055 158.422C320.648 158.047 321.039 157.5 321.227 156.781C321.852 156.906 322.383 157.016 322.82 157.109C323.258 157.172 323.633 157.234 323.945 157.297C324.289 157.391 324.586 157.453 324.836 157.484C325.086 157.547 325.383 157.609 325.727 157.672C326.039 157.734 326.414 157.812 326.852 157.906C327.32 157.969 327.867 158.062 328.492 158.188C328.023 158.125 327.539 158.172 327.039 158.328C326.57 158.484 326.117 158.656 325.68 158.844C325.18 159.062 324.711 159.328 324.273 159.641C323.992 159.828 323.664 160.109 323.289 160.484C322.945 160.859 322.445 161.219 321.789 161.562C321.133 161.906 320.258 162.203 319.164 162.453C318.102 162.672 316.727 162.75 315.039 162.688C313.008 162.625 311.305 162.266 309.93 161.609C308.555 160.922 307.445 160.094 306.602 159.125C305.758 158.125 305.148 157.047 304.773 155.891C304.398 154.734 304.195 153.656 304.164 152.656C304.133 151.656 304.43 150.609 305.055 149.516C305.68 148.422 306.555 147.422 307.68 146.516C308.836 145.609 310.227 144.875 311.852 144.312C313.477 143.719 315.258 143.422 317.195 143.422C318.32 143.422 319.352 143.562 320.289 143.844C321.258 144.094 322.133 144.438 322.914 144.875C323.727 145.312 324.43 145.812 325.023 146.375C325.617 146.906 326.117 147.453 326.523 148.016C326.93 148.609 327.273 149.234 327.555 149.891C327.805 150.453 328.008 151.094 328.164 151.812C328.32 152.531 328.367 153.266 328.305 154.016C325.93 154.078 324.008 154.125 322.539 154.156C321.102 154.188 319.977 154.203 319.164 154.203H317.055H315.461C314.898 154.203 314.164 154.219 313.258 154.25C312.352 154.281 311.242 154.328 309.93 154.391C310.086 155.641 310.477 156.609 311.102 157.297C311.758 157.953 312.445 158.453 313.164 158.797C313.977 159.172 314.867 159.391 315.836 159.453ZM311.617 151.016C312.617 151.078 313.445 151.125 314.102 151.156C314.789 151.188 315.352 151.219 315.789 151.25C316.258 151.281 316.633 151.297 316.914 151.297H318.086C318.867 151.297 320.32 151.25 322.445 151.156C322.352 149.781 322.055 148.734 321.555 148.016C321.086 147.297 320.586 146.766 320.055 146.422C319.43 146.047 318.742 145.828 317.992 145.766C315.961 145.797 314.445 146.219 313.445 147.031C312.477 147.844 311.867 149.172 311.617 151.016ZM331.258 168.312C331.57 167.844 331.82 167.406 332.008 167C332.195 166.594 332.352 166.25 332.477 165.969C332.602 165.625 332.695 165.312 332.758 165.031C332.789 164.844 332.805 164.297 332.805 163.391C332.805 162.484 332.773 161.344 332.711 159.969C332.68 158.594 332.633 157.047 332.57 155.328C332.539 153.609 332.477 151.859 332.383 150.078C332.32 148.297 332.242 146.562 332.148 144.875C332.086 143.188 332.023 141.672 331.961 140.328C331.898 138.953 331.836 137.828 331.773 136.953C331.711 136.078 331.664 135.578 331.633 135.453C331.57 135.266 331.461 135.078 331.305 134.891C330.992 134.516 330.461 134.156 329.711 133.812C331.305 133.406 332.523 133.078 333.367 132.828C333.867 132.703 334.305 132.578 334.68 132.453C335.023 132.328 335.367 132.203 335.711 132.078C335.992 131.953 336.305 131.812 336.648 131.656C336.992 131.469 337.305 131.266 337.586 131.047C337.43 131.953 337.305 132.828 337.211 133.672C337.117 134.516 337.039 135.297 336.977 136.016C336.914 136.828 336.883 137.609 336.883 138.359C336.727 139.891 336.633 141.562 336.602 143.375C336.602 145.156 336.617 146.969 336.648 148.812C336.68 150.656 336.742 152.453 336.836 154.203C336.93 155.953 337.023 157.547 337.117 158.984C337.242 160.391 337.352 161.594 337.445 162.594C337.57 163.562 337.664 164.188 337.727 164.469C337.852 164.938 337.977 165.391 338.102 165.828C338.227 166.203 338.367 166.594 338.523 167C338.68 167.438 338.867 167.781 339.086 168.031H334.539C334.133 168.031 333.742 168.047 333.367 168.078C333.023 168.109 332.664 168.141 332.289 168.172C331.914 168.203 331.57 168.25 331.258 168.312Z" fill="black"/>
</svg>
