<svg width="23" height="24" viewBox="0 0 23 24" fill="none" xmlns="http://www.w3.org/2000/svg">
<path d="M11.4534 8.75C9.79317 8.75 8.44727 10.2051 8.44727 12C8.44727 13.7949 9.79317 15.25 11.4534 15.25C13.1136 15.25 14.4595 13.7949 14.4595 12C14.4595 10.2051 13.1136 8.75 11.4534 8.75Z" fill="white"/>
<path fill-rule="evenodd" clip-rule="evenodd" d="M6.6155 3.08152C9.80489 2.69614 13.1021 2.69614 16.2914 3.08152C18.0474 3.29369 19.4637 4.78947 19.6697 6.69452C20.0511 10.2195 20.0511 13.7805 19.6697 17.3055C19.4637 19.2106 18.0474 20.7064 16.2914 20.9185C13.1021 21.3039 9.80489 21.3039 6.6155 20.9185C4.85956 20.7064 3.44328 19.2106 3.23718 17.3055C2.85584 13.7805 2.85584 10.2195 3.23718 6.69452C3.44328 4.78947 4.85956 3.29369 6.6155 3.08152ZM16.0782 6.00005C15.5674 6.00005 15.1533 6.44777 15.1533 7.00005C15.1533 7.55233 15.5674 8.00005 16.0782 8.00005C16.5891 8.00005 17.0032 7.55233 17.0032 7.00005C17.0032 6.44777 16.5891 6.00005 16.0782 6.00005ZM7.0599 12C7.0599 9.3767 9.02696 7.25005 11.4534 7.25005C13.88 7.25005 15.847 9.3767 15.847 12C15.847 14.6234 13.88 16.75 11.4534 16.75C9.02696 16.75 7.0599 14.6234 7.0599 12Z" fill="white"/>
</svg>
