<svg width="23" height="24" viewBox="0 0 23 24" fill="none" xmlns="http://www.w3.org/2000/svg">
<g clip-path="url(#clip0_137_6320)">
<path d="M14.0272 8.39994C13.3183 8.39731 12.6158 8.54583 11.96 8.83701C11.3043 9.12819 10.708 9.55632 10.2054 10.0969C9.70286 10.6375 9.30381 11.2799 9.03111 11.9873C8.75841 12.6948 8.61742 13.4535 8.61621 14.2199V20.0999C8.61621 20.3386 8.70392 20.5676 8.86003 20.7363C9.01615 20.9051 9.22789 20.9999 9.44867 20.9999H11.3911C11.6119 20.9999 11.8236 20.9051 11.9797 20.7363C12.1358 20.5676 12.2235 20.3386 12.2235 20.0999V14.2199C12.2234 13.9473 12.2763 13.6778 12.379 13.4288C12.4816 13.1798 12.6316 12.957 12.8193 12.7749C13.0069 12.5928 13.2279 12.4555 13.4679 12.3719C13.7079 12.2884 13.9615 12.2604 14.2122 12.2899C14.6617 12.3512 15.0749 12.5886 15.3732 12.9572C15.6716 13.3259 15.8344 13.8001 15.8309 14.2899V20.0999C15.8309 20.3386 15.9186 20.5676 16.0747 20.7363C16.2308 20.9051 16.4425 20.9999 16.6633 20.9999H18.6057C18.8265 20.9999 19.0383 20.9051 19.1944 20.7363C19.3505 20.5676 19.4382 20.3386 19.4382 20.0999V14.2199C19.437 13.4535 19.296 12.6948 19.0233 11.9873C18.7506 11.2799 18.3515 10.6375 17.849 10.0969C17.3464 9.55632 16.7502 9.12819 16.0944 8.83701C15.4386 8.54583 14.7361 8.39731 14.0272 8.39994Z" fill="white"/>
<path d="M6.11793 9.2998H3.62055C3.16079 9.2998 2.78809 9.70275 2.78809 10.1998V20.0998C2.78809 20.5969 3.16079 20.9998 3.62055 20.9998H6.11793C6.57768 20.9998 6.95039 20.5969 6.95039 20.0998V10.1998C6.95039 9.70275 6.57768 9.2998 6.11793 9.2998Z" fill="white"/>
<path d="M4.86924 7.5C6.01863 7.5 6.95039 6.49264 6.95039 5.25C6.95039 4.00736 6.01863 3 4.86924 3C3.71985 3 2.78809 4.00736 2.78809 5.25C2.78809 6.49264 3.71985 7.5 4.86924 7.5Z" fill="white"/>
</g>
<defs>
<clipPath id="clip0_137_6320">
<rect width="22.199" height="24" fill="white" transform="translate(0.0136719)"/>
</clipPath>
</defs>
</svg>
