<svg width="29" height="24" viewBox="0 0 29 24" fill="none" xmlns="http://www.w3.org/2000/svg">
<path opacity="0.4" d="M20.413 20.5H8.40395C4.80123 20.5 2.39941 19 2.39941 15.5V8.5C2.39941 5 4.80123 3.5 8.40395 3.5H20.413C24.0158 3.5 26.4176 5 26.4176 8.5V15.5C26.4176 19 24.0158 20.5 20.413 20.5Z" fill="white"/>
<path d="M14.4085 12.87C13.3997 12.87 12.3789 12.61 11.5984 12.08L7.8395 9.57997C7.45521 9.31997 7.38317 8.84997 7.6954 8.52997C8.00764 8.20997 8.57207 8.14997 8.95636 8.40997L12.7152 10.91C13.6279 11.52 15.177 11.52 16.0897 10.91L19.8486 8.40997C20.2329 8.14997 20.8093 8.19997 21.1095 8.52997C21.4218 8.84997 21.3617 9.32997 20.9654 9.57997L17.2066 12.08C16.438 12.61 15.4172 12.87 14.4085 12.87Z" fill="white"/>
</svg>
