<svg width="81" height="81" viewBox="0 0 81 81" fill="none" xmlns="http://www.w3.org/2000/svg">
<path d="M58.3193 30.2696C58.3193 35.1029 56.8859 39.5363 54.4193 43.2363C50.8193 48.5697 45.1193 52.3363 38.4859 53.303C37.3526 53.503 36.1859 53.6029 34.9859 53.6029C33.7859 53.6029 32.6193 53.503 31.4859 53.303C24.8526 52.3363 19.1526 48.5697 15.5526 43.2363C13.0859 39.5363 11.6526 35.1029 11.6526 30.2696C11.6526 17.3696 22.0859 6.93628 34.9859 6.93628C47.8859 6.93628 58.3193 17.3696 58.3193 30.2696Z" fill="#FFC700" stroke="black" stroke-width="1.5" stroke-linecap="round" stroke-linejoin="round"/>
<path d="M65.8193 61.8362L60.3193 63.1362C59.0859 63.4362 58.1193 64.3696 57.8526 65.6029L56.6859 70.5029C56.0526 73.1696 52.6526 73.9696 50.8859 71.8696L34.9859 53.6029L19.0859 71.9029C17.3193 74.0029 13.9193 73.2028 13.2859 70.5362L12.1193 65.6362C11.8193 64.4028 10.8526 63.4362 9.65261 63.1695L4.15261 61.8696C1.61927 61.2696 0.719273 58.1028 2.55261 56.2695L15.5526 43.2695C19.1526 48.6029 24.8526 52.3696 31.4859 53.3363C32.6193 53.5363 33.7859 53.6363 34.9859 53.6363C36.1859 53.6363 37.3526 53.5363 38.4859 53.3363C45.1193 52.3696 50.8193 48.6029 54.4193 43.2695L67.4193 56.2695C69.2526 58.0695 68.3526 61.2362 65.8193 61.8362Z" fill="#FFC700" stroke="black" stroke-width="1.5" stroke-linecap="round" stroke-linejoin="round"/>
<path d="M36.9192 20.2028L38.8858 24.1361C39.1525 24.6694 39.8525 25.2028 40.4858 25.3028L44.0525 25.9028C46.3192 26.2694 46.8525 27.9361 45.2192 29.5694L42.4525 32.3361C41.9858 32.8027 41.7192 33.7028 41.8858 34.3694L42.6858 37.8028C43.3192 40.5028 41.8858 41.5694 39.4858 40.1361L36.1525 38.1694C35.5525 37.8027 34.5525 37.8027 33.9525 38.1694L30.6192 40.1361C28.2192 41.5361 26.7858 40.5028 27.4192 37.8028L28.2192 34.3694C28.3525 33.7361 28.1192 32.8027 27.6525 32.3361L24.8858 29.5694C23.2525 27.9361 23.7858 26.3028 26.0525 25.9028L29.6192 25.3028C30.2192 25.2028 30.9192 24.6694 31.1858 24.1361L33.1525 20.2028C34.1192 18.0694 35.8525 18.0694 36.9192 20.2028Z" fill="#FFC700" stroke="black" stroke-width="1.5" stroke-linecap="round" stroke-linejoin="round"/>
</svg>
