<svg width="30" height="24" viewBox="0 0 30 24" fill="none" xmlns="http://www.w3.org/2000/svg">
<path opacity="0.4" d="M14.5577 14.21L10.6307 17.48C10.1984 17.16 9.77806 16.83 9.36975 16.49C8.13281 15.45 7.01597 14.36 6.01921 13.22C5.03447 12.08 4.24187 10.94 3.66544 9.81C3.089 8.67 2.80078 7.58 2.80078 6.54C2.80078 5.86 2.94489 5.21 3.23311 4.61C3.52133 4 3.97767 3.44 4.61415 2.94C5.38273 2.31 6.22337 2 7.11204 2C7.4483 2 7.78455 2.06 8.08478 2.18C8.39701 2.3 8.67322 2.48 8.88938 2.74L11.6755 6.01C11.8917 6.26 12.0478 6.49 12.1559 6.71C12.2639 6.92 12.324 7.13 12.324 7.32C12.324 7.56 12.2399 7.8 12.0718 8.03C11.9157 8.26 11.6875 8.5 11.3993 8.74L10.4866 9.53C10.3545 9.64 10.2944 9.77 10.2944 9.93C10.2944 10.01 10.3065 10.08 10.3305 10.16C10.3665 10.24 10.4025 10.3 10.4265 10.36C10.6427 10.69 11.015 11.12 11.5434 11.64C12.0838 12.16 12.6602 12.69 13.2847 13.22C13.717 13.57 14.1374 13.91 14.5577 14.21Z" fill="white"/>
<path d="M26.783 18.33C26.783 18.61 26.7229 18.9 26.6028 19.18C26.5668 19.26 26.5308 19.34 26.4827 19.42C26.2786 19.78 26.0144 20.12 25.6661 20.44C25.0777 20.98 24.4292 21.37 23.6966 21.62C23.6846 21.62 23.6726 21.63 23.6606 21.63C22.9521 21.87 22.1835 22 21.3549 22C20.1299 22 18.8209 21.76 17.4399 21.27C16.0589 20.78 14.6778 20.12 13.3088 19.29C12.8404 19 12.3721 18.71 11.9277 18.4L15.8547 15.13C16.191 15.34 16.4912 15.5 16.7434 15.61C16.8034 15.63 16.8755 15.66 16.9595 15.69C17.0556 15.72 17.1517 15.73 17.2598 15.73C17.4639 15.73 17.62 15.67 17.7521 15.56L18.6648 14.81C18.9651 14.56 19.2533 14.37 19.5295 14.25C19.8057 14.11 20.0819 14.04 20.3821 14.04C20.6103 14.04 20.8505 14.08 21.1147 14.17C21.3789 14.26 21.6551 14.39 21.9553 14.56L25.9303 16.91C26.2426 17.09 26.4587 17.3 26.5908 17.55C26.7109 17.8 26.783 18.05 26.783 18.33Z" fill="white"/>
</svg>
