<svg width="23" height="24" viewBox="0 0 23 24" fill="none" xmlns="http://www.w3.org/2000/svg">
<path d="M20.9734 6.22724C21.027 6.14647 20.9478 6.04218 20.8621 6.07811C20.2528 6.33344 19.616 6.50571 18.9665 6.5906C19.6897 6.12348 20.2478 5.4124 20.5573 4.57053C20.5888 4.48477 20.5022 4.40819 20.4275 4.4528C19.7553 4.85414 19.0303 5.14313 18.2773 5.30957C18.2458 5.31654 18.2133 5.30494 18.1912 5.27969C17.626 4.63502 16.8821 4.20578 16.0712 4.05745C15.2432 3.90601 14.3921 4.05596 13.6515 4.48379C12.9108 4.91162 12.3224 5.59313 11.9786 6.42144C11.6518 7.209 11.5636 8.08691 11.7248 8.93003C11.7373 8.99545 11.69 9.05721 11.6283 9.05307C10.1631 8.95469 8.73153 8.53336 7.42179 7.81446C6.11537 7.09739 4.9585 6.09983 4.02164 4.8833C3.98006 4.82931 3.90126 4.83629 3.87095 4.89845C3.57944 5.49651 3.42681 6.16311 3.42722 6.8406C3.42604 7.51498 3.57911 8.17922 3.87282 8.77416C4.16653 9.36911 4.59176 9.87631 5.11064 10.2506C4.56036 10.2344 4.02082 10.0873 3.53013 9.82067C3.46689 9.78631 3.39103 9.83524 3.39432 9.91167C3.43259 10.8009 3.73454 11.6936 4.2572 12.3786C4.81339 13.1074 5.58538 13.6062 6.44258 13.7906C6.1126 13.8992 5.77002 13.9564 5.42513 13.9606C5.23742 13.9582 5.05007 13.9433 4.86417 13.9158C4.79524 13.9056 4.73897 13.9764 4.76309 14.0469C5.01877 14.7944 5.47044 15.4467 6.06434 15.9228C6.69928 16.4318 7.46519 16.7142 8.2555 16.7306C6.92097 17.8659 5.27333 18.4855 3.57522 18.4906C3.40072 18.4912 3.22631 18.4851 3.05232 18.4723C2.95427 18.4651 2.90917 18.6063 2.99369 18.6605C4.64822 19.7221 6.53932 20.2831 8.46824 20.2806C9.89238 20.2966 11.3052 20.0056 12.6242 19.4247C13.9431 18.8437 15.1418 17.9845 16.1502 16.8971C17.1586 15.8097 17.9564 14.516 18.4972 13.0915C19.0378 11.667 19.3106 10.1403 19.2995 8.6006V8.12077C19.2995 8.0892 19.3133 8.05951 19.3366 8.04048C19.964 7.52834 20.5157 6.91691 20.9734 6.22724Z" fill="white"/>
</svg>
