<svg width="24" height="24" viewBox="0 0 24 24" fill="none" xmlns="http://www.w3.org/2000/svg">
<path fill-rule="evenodd" clip-rule="evenodd" d="M7.37166 4.89055C10.4571 4.62958 13.5565 4.62958 16.6419 4.89055L18.7144 5.06585C19.8689 5.16349 20.8132 6.09889 21.0041 7.33366C21.4815 10.4231 21.4815 13.5769 21.0041 16.6664C20.8132 17.9011 19.8689 18.8365 18.7144 18.9342L16.6419 19.1095C13.5565 19.3704 10.4571 19.3704 7.37166 19.1095L5.29911 18.9342C4.1447 18.8365 3.2003 17.9011 3.00947 16.6664C2.532 13.5769 2.532 10.4231 3.00947 7.33366C3.2003 6.09889 4.1447 5.16349 5.29911 5.06585L7.37166 4.89055ZM10.1568 14.4701V9.52989C10.1568 9.2967 10.3921 9.15266 10.577 9.27264L14.3851 11.7428C14.5647 11.8593 14.5647 12.1407 14.3851 12.2572L10.577 14.7274C10.3921 14.8474 10.1568 14.7033 10.1568 14.4701Z" fill="white"/>
</svg>
